<?xml version="1.0" encoding="utf-8"?>
<!-- Generator: Adobe Illustrator 19.0.0, SVG Export Plug-In . SVG Version: 6.00 Build 0)  -->
<svg version="1.1" id="Layer_1" xmlns="http://www.w3.org/2000/svg" xmlns:xlink="http://www.w3.org/1999/xlink" x="0px" y="0px"
	 viewBox="0 0 560 560" style="enable-background:new 0 0 560 560;" xml:space="preserve">
<style type="text/css">
	.st0{fill:#4F4F51;}
	.st1{fill:#00AEEF;}
	.st2{fill:#373D42;}
	.st3{fill:#348BCB;}
	.st4{fill:#808285;}
</style>
<g id="XMLID_1_">
	<path id="XMLID_2_" class="st0" d="M173.2,192v-28h8.6c3.7,0,6.6,1.1,8.8,3.4s3.3,5.2,3.3,8.7v3.8c0,3.6-1.1,6.5-3.3,8.7
		s-5.2,3.4-8.8,3.4H173.2z M177,167v22h4.8c2.6,0,4.6-0.9,6.1-2.6c1.5-1.7,2.2-3.9,2.2-6.6V176c0-2.6-0.7-4.8-2.2-6.5
		c-1.5-1.7-3.5-2.6-6.1-2.6H177z"/>
	<path id="XMLID_5_" class="st0" d="M205.1,192.4c-2.9,0-5.2-1-6.9-2.9c-1.7-1.9-2.6-4.4-2.6-7.5v-0.8c0-3,0.9-5.4,2.6-7.4
		c1.8-2,3.9-3,6.3-3c2.8,0,4.9,0.8,6.4,2.5s2.2,4,2.2,6.8v2.4h-13.5l-0.1,0.1c0,2,0.5,3.6,1.5,4.9c1,1.3,2.3,1.9,4.1,1.9
		c1.3,0,2.4-0.2,3.4-0.5c1-0.4,1.8-0.9,2.5-1.5l1.5,2.5c-0.7,0.7-1.7,1.3-2.9,1.8C208.3,192.2,206.8,192.4,205.1,192.4z
		 M204.5,173.8c-1.3,0-2.4,0.5-3.3,1.6c-0.9,1.1-1.4,2.4-1.7,4l0,0.1h9.6V179c0-1.5-0.4-2.7-1.2-3.7
		C207.2,174.3,206.1,173.8,204.5,173.8z"/>
	<path id="XMLID_8_" class="st0" d="M222,185.9l0.3,1.5h0.1l0.4-1.5l4.8-14.7h3.9l-7.7,20.8h-2.9l-7.8-20.8h3.9L222,185.9z"/>
	<path id="XMLID_10_" class="st0" d="M241.3,192.4c-2.9,0-5.2-1-6.9-2.9c-1.7-1.9-2.6-4.4-2.6-7.5v-0.8c0-3,0.9-5.4,2.6-7.4
		c1.8-2,3.9-3,6.3-3c2.8,0,4.9,0.8,6.4,2.5s2.2,4,2.2,6.8v2.4h-13.5l-0.1,0.1c0,2,0.5,3.6,1.5,4.9c1,1.3,2.3,1.9,4.1,1.9
		c1.3,0,2.4-0.2,3.4-0.5c1-0.4,1.8-0.9,2.5-1.5l1.5,2.5c-0.7,0.7-1.7,1.3-2.9,1.8C244.5,192.2,243,192.4,241.3,192.4z M240.7,173.8
		c-1.3,0-2.4,0.5-3.3,1.6c-0.9,1.1-1.4,2.4-1.7,4l0,0.1h9.6V179c0-1.5-0.4-2.7-1.2-3.7C243.5,174.3,242.3,173.8,240.7,173.8z"/>
	<path id="XMLID_13_" class="st0" d="M255.6,192h-3.8v-30h3.8V192z"/>
	<path id="XMLID_15_" class="st0" d="M258.6,181.4c0-3.1,0.8-5.6,2.5-7.6c1.7-2,3.9-3,6.8-3c2.9,0,5.2,1,6.8,3
		c1.7,2,2.5,4.5,2.5,7.6v0.4c0,3.1-0.8,5.6-2.5,7.6c-1.7,2-3.9,3-6.8,3c-2.9,0-5.1-1-6.8-3c-1.7-2-2.5-4.5-2.5-7.6V181.4z
		 M262.4,181.8c0,2.2,0.5,4,1.4,5.5c0.9,1.4,2.3,2.2,4.1,2.2c1.8,0,3.2-0.7,4.1-2.2c0.9-1.4,1.4-3.3,1.4-5.5v-0.4
		c0-2.2-0.5-4-1.4-5.4c-0.9-1.4-2.3-2.2-4.1-2.2c-1.8,0-3.2,0.7-4.1,2.2c-0.9,1.4-1.4,3.3-1.4,5.4V181.8z"/>
	<path id="XMLID_18_" class="st0" d="M297.6,182.4c0,3-0.7,5.4-2.2,7.3c-1.4,1.8-3.4,2.8-5.9,2.8c-1.3,0-2.4-0.2-3.4-0.6
		c-1-0.4-1.8-1.1-2.5-1.9V200h-3.8v-28.8h2.9l0.6,2.7c0.7-1,1.5-1.8,2.5-2.3c1-0.5,2.2-0.8,3.5-0.8c2.6,0,4.6,1,6,3.1
		c1.4,2,2.1,4.7,2.1,8.1V182.4z M293.8,182c0-2.4-0.5-4.3-1.4-5.8c-0.9-1.5-2.3-2.3-4.1-2.3c-1.1,0-2,0.2-2.8,0.7
		c-0.8,0.5-1.4,1.2-1.9,2v10c0.5,0.9,1.1,1.5,1.9,2s1.7,0.7,2.8,0.7c1.8,0,3.2-0.7,4.1-2c0.9-1.3,1.4-3,1.4-5.1V182z"/>
	<path id="XMLID_21_" class="st0" d="M309,192.4c-2.9,0-5.2-1-6.9-2.9c-1.7-1.9-2.6-4.4-2.6-7.5v-0.8c0-3,0.9-5.4,2.6-7.4
		s3.9-3,6.3-3c2.8,0,4.9,0.8,6.4,2.5s2.2,4,2.2,6.8v2.4h-13.5l-0.1,0.1c0,2,0.5,3.6,1.5,4.9c1,1.3,2.3,1.9,4.1,1.9
		c1.3,0,2.4-0.2,3.4-0.5c1-0.4,1.8-0.9,2.5-1.5l1.5,2.5c-0.7,0.7-1.7,1.3-2.9,1.8C312.2,192.2,310.7,192.4,309,192.4z M308.4,173.8
		c-1.3,0-2.4,0.5-3.3,1.6s-1.4,2.4-1.7,4l0,0.1h9.6V179c0-1.5-0.4-2.7-1.2-3.7S309.9,173.8,308.4,173.8z"/>
	<path id="XMLID_24_" class="st0" d="M318.3,182c0-3.3,0.7-6,2.1-8.1c1.4-2.1,3.4-3.1,6-3.1c1.2,0,2.3,0.2,3.2,0.7
		c0.9,0.4,1.7,1.1,2.4,2V162h3.8v30h-3.1l-0.4-2.6c-0.7,1-1.5,1.7-2.5,2.2c-1,0.5-2.1,0.8-3.4,0.8c-2.5,0-4.5-0.9-6-2.8
		c-1.4-1.8-2.2-4.3-2.2-7.3V182z M322.1,182.4c0,2.1,0.4,3.8,1.3,5c0.9,1.3,2.2,1.9,4,1.9c1.1,0,2.1-0.3,2.8-0.8
		c0.8-0.5,1.4-1.2,1.9-2.2v-9.7c-0.5-0.9-1.1-1.5-1.9-2c-0.8-0.5-1.7-0.8-2.8-0.8c-1.8,0-3.2,0.8-4,2.3c-0.9,1.5-1.3,3.5-1.3,5.8
		V182.4z"/>
	<path id="XMLID_27_" class="st0" d="M365.2,182.4c0,3-0.7,5.4-2.2,7.3c-1.4,1.8-3.4,2.8-6,2.8c-1.4,0-2.6-0.3-3.6-0.8
		c-1-0.5-1.9-1.3-2.5-2.4l-0.5,2.8h-3.1v-30h3.8v11.7c0.7-0.9,1.5-1.6,2.4-2.1c1-0.5,2.1-0.7,3.4-0.7c2.6,0,4.6,1,6,3.1
		c1.4,2.1,2.2,4.8,2.2,8.1V182.4z M361.4,182c0-2.4-0.4-4.3-1.3-5.8c-0.9-1.5-2.2-2.3-4-2.3c-1.2,0-2.2,0.3-3,0.9
		c-0.8,0.6-1.4,1.3-1.9,2.3v9c0.5,1,1.1,1.8,1.9,2.4s1.8,0.9,3,0.9c1.8,0,3.1-0.6,4-1.9c0.9-1.3,1.3-2.9,1.3-5V182z"/>
	<path id="XMLID_30_" class="st0" d="M374,184.3l0.7,2.6h0.1l5.1-15.7h4.2l-8.8,24c-0.5,1.4-1.3,2.6-2.3,3.7c-1,1-2.3,1.6-4,1.6
		c-0.3,0-0.7,0-1.2-0.1c-0.5-0.1-0.8-0.1-1.1-0.2l0.4-3c-0.1,0,0.2,0,0.7,0s0.9,0.1,1,0.1c0.8,0,1.5-0.4,2-1.1
		c0.5-0.7,0.9-1.5,1.3-2.4l0.9-2.2l-7.7-20.4h4.2L374,184.3z"/>
	<path id="XMLID_32_" class="st0" d="M397.4,175.1h-3.8v-3.9h3.8V175.1z M397.4,192h-3.8v-3.9h3.8V192z"/>
</g>
<g id="XMLID_1344_">
	<path id="XMLID_1409_" class="st1" d="M321.7,247c4.3,0,7.7-3.5,7.7-7.7c0-4.3-3.5-7.7-7.7-7.7c-4.3,0-7.7,3.5-7.7,7.7
		C314,243.5,317.5,247,321.7,247"/>
	<path id="XMLID_1408_" class="st2" d="M140.4,370.1c-0.8,0.2-1.6,0.3-2.3,0.4c-0.7,0.1-1.4,0.1-2.1,0.1c-4.1,0-7-1.2-8.8-3.5
		c-1.7-2.3-2.6-6.5-2.6-12.7v-21h-5.9l1.3-4.5h4.6v-9.7l4.6-2.8v12.5H140v4.5h-10.7v21.5c0,4.4,0.5,7.4,1.5,8.8
		c1,1.4,2.8,2.2,5.4,2.2c0.6,0,1.2,0,1.9-0.1c0.7-0.1,1.4-0.2,2.3-0.4V370.1z"/>
	<path id="XMLID_1405_" class="st2" d="M180.9,365.2c-2.7,2-5.4,3.5-8,4.4c-2.7,1-5.4,1.4-8.2,1.4c-6.2,0-11.4-2.1-15.5-6.2
		c-4.1-4.1-6.2-9.2-6.2-15.3c0-6.1,2.1-11.2,6.2-15.3c4.2-4.1,9.3-6.1,15.5-6.1c3.9,0,7.3,0.8,10.3,2.5c2.9,1.7,5.2,4.1,6.9,7.3
		l-32.2,19c1.5,2.9,3.6,5.2,6.2,6.8c2.6,1.6,5.6,2.4,8.8,2.4c2.6,0,5.2-0.5,7.7-1.6c2.5-1.1,5.4-2.9,8.6-5.4V365.2z M147.9,353.2
		L175,337c-1.1-1.4-2.6-2.5-4.4-3.2c-1.7-0.7-3.8-1.1-6-1.1c-4.7,0-8.7,1.6-12,4.9c-3.3,3.2-4.9,7.2-4.9,11.9c0,0.8,0,1.4,0,1.9
		C147.8,352,147.9,352.6,147.9,353.2"/>
	<path id="XMLID_1404_" class="st2" d="M222.3,366.1c-2.3,1.6-4.8,2.8-7.4,3.7c-2.6,0.9-5.3,1.3-7.9,1.3c-6.2,0-11.3-2.1-15.5-6.2
		c-4.2-4.1-6.2-9.2-6.2-15.3c0-6.1,2.1-11.2,6.2-15.3c4.1-4.1,9.3-6.1,15.5-6.1c2.9,0,5.6,0.4,8,1.1c2.4,0.7,4.8,1.9,7.1,3.5
		l-3.1,3.7c-2-1.4-4-2.4-5.9-3c-1.9-0.6-3.9-0.9-6.1-0.9c-4.7,0-8.7,1.7-12,5c-3.3,3.3-5,7.3-5,12c0,4.7,1.7,8.7,5,12
		c3.3,3.3,7.3,5,12,5c2,0,4-0.4,6.1-1.1c2.1-0.7,4.1-1.8,6.1-3.1L222.3,366.1z"/>
	<path id="XMLID_1403_" class="st2" d="M228.7,370.7v-58.1l4.6-0.6v23.6c1.7-2.5,3.7-4.4,5.9-5.6c2.2-1.2,4.7-1.9,7.5-1.9
		c4.5,0,8,1.4,10.5,4.1c2.5,2.8,3.8,6.7,3.8,11.7v26.2l-4.5,0.6v-24.5c0-4.7-0.9-8.3-2.8-10.7c-1.8-2.4-4.6-3.6-8.2-3.6
		c-3.3,0-6.2,1.2-8.6,3.7c-2.4,2.4-3.7,5.4-3.7,8.9v25.6L228.7,370.7z"/>
	<path id="XMLID_1402_" class="st2" d="M269.1,370.7v-41.6l4.6-0.6v7c1.7-2.5,3.7-4.4,5.9-5.6c2.2-1.2,4.7-1.9,7.5-1.9
		c4.5,0,8,1.4,10.6,4.1c2.5,2.8,3.8,6.7,3.8,11.7v26.2l-4.5,0.6v-24.5c0-4.7-0.9-8.3-2.8-10.7c-1.8-2.4-4.6-3.6-8.2-3.6
		c-3.3,0-6.2,1.2-8.6,3.7c-2.4,2.4-3.7,5.4-3.7,8.9v25.6L269.1,370.7z"/>
	<path id="XMLID_1399_" class="st2" d="M307.6,349.6c0-6.1,2.1-11.2,6.2-15.2c4.2-4.1,9.3-6.1,15.5-6.1c6.2,0,11.3,2,15.4,6.1
		c4.1,4.1,6.2,9.2,6.2,15.2c0,6.1-2.1,11.2-6.2,15.3c-4.1,4.1-9.3,6.2-15.4,6.2c-6.2,0-11.3-2.1-15.5-6.2
		C309.7,360.8,307.6,355.7,307.6,349.6 M312.3,349.6c0,4.7,1.7,8.7,5,12c3.3,3.3,7.3,5,12,5c4.7,0,8.7-1.7,12-5c3.3-3.3,5-7.3,5-12
		c0-4.7-1.7-8.7-5-12c-3.3-3.3-7.3-5-12-5c-4.7,0-8.7,1.7-12,5C314,340.9,312.3,344.9,312.3,349.6"/>
	<path id="XMLID_1398_" class="st1" d="M354.5,364.9l3.5-3.3c1.5,1.7,3.1,3,4.9,3.8c1.8,0.9,3.7,1.3,5.7,1.3c2.5,0,4.6-0.7,6.2-2.1
		c1.6-1.4,2.4-3.3,2.4-5.5c0-2-0.6-3.6-1.8-4.7c-1.2-1.2-3.3-2.1-6.3-2.9c-5.1-1.3-8.7-2.8-10.5-4.6c-1.9-1.8-2.8-4.2-2.8-7.3
		c0-3.3,1.3-6,3.8-8.3c2.5-2.2,5.8-3.4,9.7-3.4c2.3,0,4.5,0.4,6.6,1.2c2.1,0.8,4,1.9,5.7,3.5l-2.9,3.8c-1.6-1.3-3.1-2.4-4.7-3.1
		c-1.6-0.7-3.2-1-4.7-1c-2.6,0-4.6,0.7-6.2,2c-1.6,1.3-2.4,3-2.4,5.2c0,3.2,2.8,5.5,8.5,6.9c1.2,0.3,2.1,0.5,2.7,0.7
		c3.5,1,6.1,2.4,7.8,4.3c1.7,1.9,2.6,4.3,2.6,7.1c0,3.7-1.3,6.8-4,9.2c-2.7,2.4-6,3.7-10,3.7c-2.8,0-5.4-0.5-7.7-1.6
		C358.2,368.6,356.2,367,354.5,364.9"/>
	<polygon id="XMLID_1397_" class="st1" points="395.2,385.2 390.6,383.9 401.1,363.1 382.4,329.5 386.9,328.2 403.5,358.3 
		418.3,328.2 422.8,329.4 	"/>
	<path id="XMLID_1396_" class="st1" d="M421.8,364.9l3.5-3.3c1.5,1.7,3.1,3,4.9,3.8c1.8,0.9,3.7,1.3,5.7,1.3c2.5,0,4.6-0.7,6.2-2.1
		c1.6-1.4,2.4-3.3,2.4-5.5c0-2-0.6-3.6-1.8-4.7c-1.2-1.2-3.3-2.1-6.3-2.9c-5.1-1.3-8.7-2.8-10.5-4.6c-1.9-1.8-2.8-4.2-2.8-7.3
		c0-3.3,1.3-6,3.8-8.3c2.5-2.2,5.8-3.4,9.7-3.4c2.3,0,4.5,0.4,6.6,1.2c2.1,0.8,4,1.9,5.7,3.5l-2.9,3.8c-1.6-1.3-3.1-2.4-4.7-3.1
		c-1.6-0.7-3.2-1-4.7-1c-2.6,0-4.6,0.7-6.2,2c-1.6,1.3-2.4,3-2.4,5.2c0,3.2,2.8,5.5,8.5,6.9c1.2,0.3,2.1,0.5,2.7,0.7
		c3.5,1,6.1,2.4,7.8,4.3c1.7,1.9,2.6,4.3,2.6,7.1c0,3.7-1.3,6.8-4,9.2c-2.7,2.4-6,3.7-10,3.7c-2.8,0-5.4-0.5-7.7-1.6
		C425.5,368.6,423.5,367,421.8,364.9"/>
	<polygon id="XMLID_1395_" class="st2" points="300.5,296.9 289.6,303.8 282.5,294.6 293.8,288.4 	"/>
	<polygon id="XMLID_1394_" class="st2" points="328.8,279.6 320.1,285.5 312,277.2 320.8,272.4 	"/>
	<polygon id="XMLID_1393_" class="st2" points="313.4,312.1 302,320.3 293.5,309.4 304.8,301.5 	"/>
	<polygon id="XMLID_1392_" class="st2" points="341.6,291.6 332.6,297.9 323.6,289 332.6,283.4 	"/>
	<polygon id="XMLID_1391_" class="st1" points="272.8,282.2 279.4,290.6 290.7,284.3 284.1,276.2 	"/>
	<polygon id="XMLID_1390_" class="st1" points="298.3,269.4 288.6,274.2 294.9,281.9 304.9,276.2 	"/>
	<polygon id="XMLID_1389_" class="st1" points="309,274.2 317.8,269.1 311,262.7 302.2,267.1 	"/>
	<polygon id="XMLID_1388_" class="st1" points="308.3,279.7 298.4,285.5 305.9,293.8 315.3,287.6 	"/>
	<polygon id="XMLID_1387_" class="st1" points="327.9,300.9 319.2,292.3 310.2,298.7 318.6,308 	"/>
	<path id="XMLID_1386_" class="st1" d="M310.2,237.8c-90.7,25.5-118.8,89.4-118.8,89.4c4.7-3.2,14.9-5.2,14.9-5.2
		c37.3-66.9,104-79.4,104-79.4V237.8z"/>
	<path id="XMLID_1385_" class="st3" d="M332.8,235.3c79.3,1.9,40.7,66.2,40.7,66.2c-21.1,35.7-58.4,57.7-58.4,57.7l-1.7-3.8
		c44.2-27.4,54-63.6,54-63.6c14-50.9-34.6-50.9-34.6-50.9V235.3L332.8,235.3z"/>
	<path id="XMLID_1384_" class="st3" d="M332.8,235.3c79.3,1.9,40.7,66.2,40.7,66.2c-21.1,35.7-58.4,57.7-58.4,57.7l-1.7-3.8
		c44.2-27.4,54-63.6,54-63.6c14-50.9-34.6-50.9-34.6-50.9V235.3L332.8,235.3z"/>
	<path id="XMLID_1383_" class="st1" d="M332.8,235.3v5.6c0,0,48.7-0.1,34.6,50.9c0,0-9.9,36.2-54,63.6l1.7,3.8
		c0,0,37.3-22,58.4-57.7C373.5,301.5,412,237.3,332.8,235.3L332.8,235.3"/>
	<path id="XMLID_1380_" class="st4" d="M134.8,387.4c0,3.8-2.3,5.8-5.1,5.8c-2.9,0-5-2.3-5-5.6c0-3.5,2.2-5.8,5.1-5.8
		C132.8,381.8,134.8,384.1,134.8,387.4 M126.2,387.6c0,2.4,1.3,4.5,3.5,4.5c2.3,0,3.5-2.1,3.5-4.6c0-2.2-1.1-4.5-3.5-4.5
		C127.4,383,126.2,385.2,126.2,387.6"/>
	<path id="XMLID_1379_" class="st4" d="M141.2,393v-11h1.6l3.5,5.6c0.8,1.3,1.5,2.5,2,3.6l0,0c-0.1-1.5-0.2-2.8-0.2-4.5V382h1.3v11
		h-1.4l-3.5-5.6c-0.8-1.2-1.5-2.5-2.1-3.7l0,0c0.1,1.4,0.1,2.7,0.1,4.5v4.7H141.2z"/>
	<polygon id="XMLID_1378_" class="st4" points="162.3,387.9 158,387.9 158,391.8 162.8,391.8 162.8,393 156.6,393 156.6,382 
		162.5,382 162.5,383.2 158,383.2 158,386.7 162.3,386.7 	"/>
	<path id="XMLID_1377_" class="st4" d="M178.5,393l-2.8-11h1.5l1.3,5.6c0.3,1.4,0.6,2.7,0.8,3.8h0c0.2-1.1,0.5-2.4,0.9-3.8l1.5-5.6
		h1.5l1.3,5.6c0.3,1.3,0.6,2.6,0.8,3.8h0c0.2-1.2,0.5-2.4,0.9-3.8l1.5-5.6h1.5l-3.1,11h-1.5l-1.4-5.7c-0.3-1.4-0.6-2.5-0.7-3.6h0
		c-0.2,1.1-0.4,2.2-0.9,3.6L180,393H178.5z"/>
	<rect id="XMLID_1376_" x="195.1" y="382" class="st4" width="1.4" height="11"/>
	<path id="XMLID_1375_" class="st4" d="M203.6,393v-11h1.6l3.5,5.6c0.8,1.3,1.5,2.5,2,3.6l0,0c-0.1-1.5-0.2-2.8-0.2-4.5V382h1.3v11
		h-1.4l-3.5-5.6c-0.8-1.2-1.5-2.5-2.1-3.7l0,0c0.1,1.4,0.1,2.7,0.1,4.5v4.7H203.6z"/>
	<path id="XMLID_1372_" class="st4" d="M218.9,382.1c0.9-0.1,1.9-0.2,3-0.2c2,0,3.5,0.5,4.5,1.4c1,0.9,1.6,2.2,1.6,4
		c0,1.8-0.6,3.3-1.6,4.3c-1,1-2.7,1.6-4.9,1.6c-1,0-1.9,0-2.6-0.1V382.1z M220.4,391.9c0.4,0.1,0.9,0.1,1.4,0.1c3,0,4.7-1.7,4.7-4.7
		c0-2.6-1.5-4.3-4.5-4.3c-0.7,0-1.3,0.1-1.7,0.2V391.9z"/>
	<path id="XMLID_1369_" class="st4" d="M243.9,387.4c0,3.8-2.3,5.8-5.1,5.8c-2.9,0-5-2.3-5-5.6c0-3.5,2.2-5.8,5.1-5.8
		C241.9,381.8,243.9,384.1,243.9,387.4 M235.3,387.6c0,2.4,1.3,4.5,3.5,4.5c2.3,0,3.5-2.1,3.5-4.6c0-2.2-1.1-4.5-3.5-4.5
		C236.5,383,235.3,385.2,235.3,387.6"/>
	<path id="XMLID_1368_" class="st4" d="M252.1,393l-2.8-11h1.5l1.3,5.6c0.3,1.4,0.6,2.7,0.8,3.8h0c0.2-1.1,0.5-2.4,0.9-3.8l1.5-5.6
		h1.5l1.3,5.6c0.3,1.3,0.6,2.6,0.8,3.8h0c0.2-1.2,0.5-2.4,0.9-3.8l1.5-5.6h1.5l-3.1,11h-1.5l-1.4-5.7c-0.3-1.4-0.6-2.5-0.7-3.6h0
		c-0.2,1.1-0.4,2.2-0.9,3.6l-1.6,5.7H252.1z"/>
	<path id="XMLID_1367_" class="st4" d="M276.6,391.3c0.6,0.4,1.6,0.7,2.6,0.7c1.5,0,2.3-0.8,2.3-1.9c0-1-0.6-1.6-2.1-2.2
		c-1.8-0.6-2.9-1.6-2.9-3.1c0-1.7,1.4-3,3.6-3c1.1,0,1.9,0.3,2.4,0.5l-0.4,1.2c-0.4-0.2-1.1-0.5-2.1-0.5c-1.5,0-2.1,0.9-2.1,1.7
		c0,1,0.7,1.5,2.2,2.1c1.9,0.7,2.8,1.6,2.8,3.2c0,1.7-1.3,3.2-3.9,3.2c-1.1,0-2.2-0.3-2.8-0.7L276.6,391.3z"/>
	<path id="XMLID_1364_" class="st4" d="M298.9,387.4c0,3.8-2.3,5.8-5.1,5.8c-2.9,0-5-2.3-5-5.6c0-3.5,2.2-5.8,5.1-5.8
		C296.9,381.8,298.9,384.1,298.9,387.4 M290.3,387.6c0,2.4,1.3,4.5,3.5,4.5c2.3,0,3.5-2.1,3.5-4.6c0-2.2-1.1-4.5-3.5-4.5
		C291.5,383,290.3,385.2,290.3,387.6"/>
	<polygon id="XMLID_1358_" class="st4" points="305.3,382 306.7,382 306.7,391.8 311.4,391.8 311.4,393 305.3,393 	"/>
	<path id="XMLID_1352_" class="st4" d="M318.4,382v6.5c0,2.5,1.1,3.5,2.6,3.5c1.6,0,2.7-1.1,2.7-3.5V382h1.4v6.4
		c0,3.4-1.8,4.8-4.2,4.8c-2.3,0-4-1.3-4-4.7V382H318.4z"/>
	<polygon id="XMLID_1351_" class="st4" points="334.3,383.2 330.9,383.2 330.9,382 339.1,382 339.1,383.2 335.7,383.2 335.7,393 
		334.3,393 	"/>
	<rect id="XMLID_1350_" x="344.9" y="382" class="st4" width="1.4" height="11"/>
	<path id="XMLID_1347_" class="st4" d="M362.8,387.4c0,3.8-2.3,5.8-5.1,5.8c-2.9,0-5-2.3-5-5.6c0-3.5,2.2-5.8,5.1-5.8
		C360.9,381.8,362.8,384.1,362.8,387.4 M354.3,387.6c0,2.4,1.3,4.5,3.5,4.5c2.3,0,3.5-2.1,3.5-4.6c0-2.2-1.1-4.5-3.5-4.5
		C355.4,383,354.3,385.2,354.3,387.6"/>
	<path id="XMLID_1346_" class="st4" d="M369.3,393v-11h1.6l3.5,5.6c0.8,1.3,1.5,2.5,2,3.6l0,0c-0.1-1.5-0.2-2.8-0.2-4.5V382h1.3v11
		h-1.4l-3.5-5.6c-0.8-1.2-1.5-2.5-2.1-3.7l0,0c0.1,1.4,0.1,2.7,0.1,4.5v4.7H369.3z"/>
</g>
</svg>
